<mxfile host="65bd71144e">
    <diagram id="I1aES5MwzxxNd39gxgXI" name="Page-1">
        <mxGraphModel dx="1341" dy="809" grid="1" gridSize="10" guides="1" tooltips="1" connect="1" arrows="1" fold="1" page="0" pageScale="1" pageWidth="850" pageHeight="1100" math="0" shadow="0">
            <root>
                <mxCell id="0"/>
                <mxCell id="1" parent="0"/>
                <mxCell id="2" value="React Routes" style="shape=table;startSize=30;container=1;collapsible=0;childLayout=tableLayout;fontStyle=1;align=center;" vertex="1" parent="1">
                    <mxGeometry x="-120" y="240" width="440" height="520" as="geometry"/>
                </mxCell>
                <mxCell id="3" value="" style="shape=tableRow;horizontal=0;startSize=0;swimlaneHead=0;swimlaneBody=0;top=0;left=0;bottom=0;right=0;collapsible=0;dropTarget=0;fillColor=none;points=[[0,0.5],[1,0.5]];portConstraint=eastwest;" vertex="1" parent="2">
                    <mxGeometry y="30" width="440" height="60" as="geometry"/>
                </mxCell>
                <mxCell id="4" value="REACT ROUTES" style="shape=partialRectangle;html=1;whiteSpace=wrap;connectable=0;fillColor=none;top=0;left=0;bottom=0;right=0;overflow=hidden;fontStyle=1" vertex="1" parent="3">
                    <mxGeometry width="140" height="60" as="geometry">
                        <mxRectangle width="140" height="60" as="alternateBounds"/>
                    </mxGeometry>
                </mxCell>
                <mxCell id="5" value="COMPONENTS" style="shape=partialRectangle;html=1;whiteSpace=wrap;connectable=0;fillColor=none;top=0;left=0;bottom=0;right=0;overflow=hidden;fontStyle=1" vertex="1" parent="3">
                    <mxGeometry x="140" width="141" height="60" as="geometry">
                        <mxRectangle width="141" height="60" as="alternateBounds"/>
                    </mxGeometry>
                </mxCell>
                <mxCell id="6" value="DESCRIPTION" style="shape=partialRectangle;html=1;whiteSpace=wrap;connectable=0;fillColor=none;top=0;left=0;bottom=0;right=0;overflow=hidden;fontStyle=1" vertex="1" parent="3">
                    <mxGeometry x="281" width="159" height="60" as="geometry">
                        <mxRectangle width="159" height="60" as="alternateBounds"/>
                    </mxGeometry>
                </mxCell>
                <mxCell id="7" value="" style="shape=tableRow;horizontal=0;startSize=0;swimlaneHead=0;swimlaneBody=0;top=0;left=0;bottom=0;right=0;collapsible=0;dropTarget=0;fillColor=none;points=[[0,0.5],[1,0.5]];portConstraint=eastwest;" vertex="1" parent="2">
                    <mxGeometry y="90" width="440" height="56" as="geometry"/>
                </mxCell>
                <mxCell id="8" value="'/'" style="shape=partialRectangle;html=1;whiteSpace=wrap;connectable=0;fillColor=none;top=0;left=0;bottom=0;right=0;overflow=hidden;" vertex="1" parent="7">
                    <mxGeometry width="140" height="56" as="geometry">
                        <mxRectangle width="140" height="56" as="alternateBounds"/>
                    </mxGeometry>
                </mxCell>
                <mxCell id="9" value="&amp;nbsp;NavBar,&amp;nbsp;" style="shape=partialRectangle;html=1;whiteSpace=wrap;connectable=0;fillColor=none;top=0;left=0;bottom=0;right=0;overflow=hidden;" vertex="1" parent="7">
                    <mxGeometry x="140" width="141" height="56" as="geometry">
                        <mxRectangle width="141" height="56" as="alternateBounds"/>
                    </mxGeometry>
                </mxCell>
                <mxCell id="10" value="Home page, about details" style="shape=partialRectangle;html=1;whiteSpace=wrap;connectable=0;fillColor=none;top=0;left=0;bottom=0;right=0;overflow=hidden;" vertex="1" parent="7">
                    <mxGeometry x="281" width="159" height="56" as="geometry">
                        <mxRectangle width="159" height="56" as="alternateBounds"/>
                    </mxGeometry>
                </mxCell>
                <mxCell id="11" value="" style="shape=tableRow;horizontal=0;startSize=0;swimlaneHead=0;swimlaneBody=0;top=0;left=0;bottom=0;right=0;collapsible=0;dropTarget=0;fillColor=none;points=[[0,0.5],[1,0.5]];portConstraint=eastwest;" vertex="1" parent="2">
                    <mxGeometry y="146" width="440" height="57" as="geometry"/>
                </mxCell>
                <mxCell id="12" value="'/signin'" style="shape=partialRectangle;html=1;whiteSpace=wrap;connectable=0;fillColor=none;top=0;left=0;bottom=0;right=0;overflow=hidden;" vertex="1" parent="11">
                    <mxGeometry width="140" height="57" as="geometry">
                        <mxRectangle width="140" height="57" as="alternateBounds"/>
                    </mxGeometry>
                </mxCell>
                <mxCell id="13" value="NavBar, LoginSignup" style="shape=partialRectangle;html=1;whiteSpace=wrap;connectable=0;fillColor=none;top=0;left=0;bottom=0;right=0;overflow=hidden;" vertex="1" parent="11">
                    <mxGeometry x="140" width="141" height="57" as="geometry">
                        <mxRectangle width="141" height="57" as="alternateBounds"/>
                    </mxGeometry>
                </mxCell>
                <mxCell id="14" value="Login/Signup forms&amp;nbsp;" style="shape=partialRectangle;html=1;whiteSpace=wrap;connectable=0;fillColor=none;top=0;left=0;bottom=0;right=0;overflow=hidden;" vertex="1" parent="11">
                    <mxGeometry x="281" width="159" height="57" as="geometry">
                        <mxRectangle width="159" height="57" as="alternateBounds"/>
                    </mxGeometry>
                </mxCell>
                <mxCell id="15" style="shape=tableRow;horizontal=0;startSize=0;swimlaneHead=0;swimlaneBody=0;top=0;left=0;bottom=0;right=0;collapsible=0;dropTarget=0;fillColor=none;points=[[0,0.5],[1,0.5]];portConstraint=eastwest;" vertex="1" parent="2">
                    <mxGeometry y="203" width="440" height="57" as="geometry"/>
                </mxCell>
                <mxCell id="16" value="'/reading'" style="shape=partialRectangle;html=1;whiteSpace=wrap;connectable=0;fillColor=none;top=0;left=0;bottom=0;right=0;overflow=hidden;" vertex="1" parent="15">
                    <mxGeometry width="140" height="57" as="geometry">
                        <mxRectangle width="140" height="57" as="alternateBounds"/>
                    </mxGeometry>
                </mxCell>
                <mxCell id="17" value="NavBar, TarotCard" style="shape=partialRectangle;html=1;whiteSpace=wrap;connectable=0;fillColor=none;top=0;left=0;bottom=0;right=0;overflow=hidden;" vertex="1" parent="15">
                    <mxGeometry x="140" width="141" height="57" as="geometry">
                        <mxRectangle width="141" height="57" as="alternateBounds"/>
                    </mxGeometry>
                </mxCell>
                <mxCell id="18" value="Three card spread with meanings of each card" style="shape=partialRectangle;html=1;whiteSpace=wrap;connectable=0;fillColor=none;top=0;left=0;bottom=0;right=0;overflow=hidden;" vertex="1" parent="15">
                    <mxGeometry x="281" width="159" height="57" as="geometry">
                        <mxRectangle width="159" height="57" as="alternateBounds"/>
                    </mxGeometry>
                </mxCell>
                <mxCell id="19" style="shape=tableRow;horizontal=0;startSize=0;swimlaneHead=0;swimlaneBody=0;top=0;left=0;bottom=0;right=0;collapsible=0;dropTarget=0;fillColor=none;points=[[0,0.5],[1,0.5]];portConstraint=eastwest;" vertex="1" parent="2">
                    <mxGeometry y="260" width="440" height="80" as="geometry"/>
                </mxCell>
                <mxCell id="20" value="'/deck'" style="shape=partialRectangle;html=1;whiteSpace=wrap;connectable=0;fillColor=none;top=0;left=0;bottom=0;right=0;overflow=hidden;" vertex="1" parent="19">
                    <mxGeometry width="140" height="80" as="geometry">
                        <mxRectangle width="140" height="80" as="alternateBounds"/>
                    </mxGeometry>
                </mxCell>
                <mxCell id="21" value="NavBar, TarotCard, PopUpWindow" style="shape=partialRectangle;html=1;whiteSpace=wrap;connectable=0;fillColor=none;top=0;left=0;bottom=0;right=0;overflow=hidden;" vertex="1" parent="19">
                    <mxGeometry x="140" width="141" height="80" as="geometry">
                        <mxRectangle width="141" height="80" as="alternateBounds"/>
                    </mxGeometry>
                </mxCell>
                <mxCell id="22" value="Full deck of tarot cards that shows a popup window of&amp;nbsp; details of whatever card is clicked" style="shape=partialRectangle;html=1;whiteSpace=wrap;connectable=0;fillColor=none;top=0;left=0;bottom=0;right=0;overflow=hidden;" vertex="1" parent="19">
                    <mxGeometry x="281" width="159" height="80" as="geometry">
                        <mxRectangle width="159" height="80" as="alternateBounds"/>
                    </mxGeometry>
                </mxCell>
                <mxCell id="23" style="shape=tableRow;horizontal=0;startSize=0;swimlaneHead=0;swimlaneBody=0;top=0;left=0;bottom=0;right=0;collapsible=0;dropTarget=0;fillColor=none;points=[[0,0.5],[1,0.5]];portConstraint=eastwest;" vertex="1" parent="2">
                    <mxGeometry y="340" width="440" height="57" as="geometry"/>
                </mxCell>
                <mxCell id="24" value="'/lesson'" style="shape=partialRectangle;html=1;whiteSpace=wrap;connectable=0;fillColor=none;top=0;left=0;bottom=0;right=0;overflow=hidden;" vertex="1" parent="23">
                    <mxGeometry width="140" height="57" as="geometry">
                        <mxRectangle width="140" height="57" as="alternateBounds"/>
                    </mxGeometry>
                </mxCell>
                <mxCell id="25" value="NavBar, LessonList" style="shape=partialRectangle;html=1;whiteSpace=wrap;connectable=0;fillColor=none;top=0;left=0;bottom=0;right=0;overflow=hidden;" vertex="1" parent="23">
                    <mxGeometry x="140" width="141" height="57" as="geometry">
                        <mxRectangle width="141" height="57" as="alternateBounds"/>
                    </mxGeometry>
                </mxCell>
                <mxCell id="26" value="List of all lessons you can take" style="shape=partialRectangle;html=1;whiteSpace=wrap;connectable=0;fillColor=none;top=0;left=0;bottom=0;right=0;overflow=hidden;" vertex="1" parent="23">
                    <mxGeometry x="281" width="159" height="57" as="geometry">
                        <mxRectangle width="159" height="57" as="alternateBounds"/>
                    </mxGeometry>
                </mxCell>
                <mxCell id="27" style="shape=tableRow;horizontal=0;startSize=0;swimlaneHead=0;swimlaneBody=0;top=0;left=0;bottom=0;right=0;collapsible=0;dropTarget=0;fillColor=none;points=[[0,0.5],[1,0.5]];portConstraint=eastwest;" vertex="1" parent="2">
                    <mxGeometry y="397" width="440" height="57" as="geometry"/>
                </mxCell>
                <mxCell id="28" value="'/lesson/:id'" style="shape=partialRectangle;html=1;whiteSpace=wrap;connectable=0;fillColor=none;top=0;left=0;bottom=0;right=0;overflow=hidden;" vertex="1" parent="27">
                    <mxGeometry width="140" height="57" as="geometry">
                        <mxRectangle width="140" height="57" as="alternateBounds"/>
                    </mxGeometry>
                </mxCell>
                <mxCell id="29" value="NavBar, AnswerButton" style="shape=partialRectangle;html=1;whiteSpace=wrap;connectable=0;fillColor=none;top=0;left=0;bottom=0;right=0;overflow=hidden;" vertex="1" parent="27">
                    <mxGeometry x="140" width="141" height="57" as="geometry">
                        <mxRectangle width="141" height="57" as="alternateBounds"/>
                    </mxGeometry>
                </mxCell>
                <mxCell id="30" value="Individual lesson to learn more about different cards" style="shape=partialRectangle;html=1;whiteSpace=wrap;connectable=0;fillColor=none;top=0;left=0;bottom=0;right=0;overflow=hidden;" vertex="1" parent="27">
                    <mxGeometry x="281" width="159" height="57" as="geometry">
                        <mxRectangle width="159" height="57" as="alternateBounds"/>
                    </mxGeometry>
                </mxCell>
                <mxCell id="31" style="shape=tableRow;horizontal=0;startSize=0;swimlaneHead=0;swimlaneBody=0;top=0;left=0;bottom=0;right=0;collapsible=0;dropTarget=0;fillColor=none;points=[[0,0.5],[1,0.5]];portConstraint=eastwest;" vertex="1" parent="2">
                    <mxGeometry y="454" width="440" height="66" as="geometry"/>
                </mxCell>
                <mxCell id="32" value="'/profile/:id'" style="shape=partialRectangle;html=1;whiteSpace=wrap;connectable=0;fillColor=none;top=0;left=0;bottom=0;right=0;overflow=hidden;" vertex="1" parent="31">
                    <mxGeometry width="140" height="66" as="geometry">
                        <mxRectangle width="140" height="66" as="alternateBounds"/>
                    </mxGeometry>
                </mxCell>
                <mxCell id="33" value="NavBar, LessonCard, ReadingCard, HoverWindow" style="shape=partialRectangle;html=1;whiteSpace=wrap;connectable=0;fillColor=none;top=0;left=0;bottom=0;right=0;overflow=hidden;" vertex="1" parent="31">
                    <mxGeometry x="140" width="141" height="66" as="geometry">
                        <mxRectangle width="141" height="66" as="alternateBounds"/>
                    </mxGeometry>
                </mxCell>
                <mxCell id="34" value="Your profile page where you can view lessons you've completed and readings you've had" style="shape=partialRectangle;html=1;whiteSpace=wrap;connectable=0;fillColor=none;top=0;left=0;bottom=0;right=0;overflow=hidden;" vertex="1" parent="31">
                    <mxGeometry x="281" width="159" height="66" as="geometry">
                        <mxRectangle width="159" height="66" as="alternateBounds"/>
                    </mxGeometry>
                </mxCell>
                <mxCell id="35" value="React Routes" style="shape=table;startSize=30;container=1;collapsible=0;childLayout=tableLayout;fontStyle=1;align=center;" vertex="1" parent="1">
                    <mxGeometry x="670" y="240" width="510" height="652" as="geometry"/>
                </mxCell>
                <mxCell id="36" value="" style="shape=tableRow;horizontal=0;startSize=0;swimlaneHead=0;swimlaneBody=0;top=0;left=0;bottom=0;right=0;collapsible=0;dropTarget=0;fillColor=none;points=[[0,0.5],[1,0.5]];portConstraint=eastwest;" vertex="1" parent="35">
                    <mxGeometry y="30" width="510" height="60" as="geometry"/>
                </mxCell>
                <mxCell id="37" value="&lt;span style=&quot;font-weight: normal;&quot;&gt;/users&amp;nbsp;&lt;/span&gt;" style="shape=partialRectangle;html=1;whiteSpace=wrap;connectable=0;fillColor=none;top=0;left=0;bottom=0;right=0;overflow=hidden;fontStyle=1" vertex="1" parent="36">
                    <mxGeometry width="180" height="60" as="geometry">
                        <mxRectangle width="180" height="60" as="alternateBounds"/>
                    </mxGeometry>
                </mxCell>
                <mxCell id="38" value="&lt;span style=&quot;font-weight: normal;&quot;&gt;POST&lt;/span&gt;" style="shape=partialRectangle;html=1;whiteSpace=wrap;connectable=0;fillColor=none;top=0;left=0;bottom=0;right=0;overflow=hidden;fontStyle=1" vertex="1" parent="36">
                    <mxGeometry x="180" width="140" height="60" as="geometry">
                        <mxRectangle width="140" height="60" as="alternateBounds"/>
                    </mxGeometry>
                </mxCell>
                <mxCell id="39" value="&lt;span style=&quot;font-weight: normal;&quot;&gt;Create new user, create LessonStatistics instance for all lessons for new user&lt;/span&gt;" style="shape=partialRectangle;html=1;whiteSpace=wrap;connectable=0;fillColor=none;top=0;left=0;bottom=0;right=0;overflow=hidden;fontStyle=1" vertex="1" parent="36">
                    <mxGeometry x="320" width="190" height="60" as="geometry">
                        <mxRectangle width="190" height="60" as="alternateBounds"/>
                    </mxGeometry>
                </mxCell>
                <mxCell id="40" value="" style="shape=tableRow;horizontal=0;startSize=0;swimlaneHead=0;swimlaneBody=0;top=0;left=0;bottom=0;right=0;collapsible=0;dropTarget=0;fillColor=none;points=[[0,0.5],[1,0.5]];portConstraint=eastwest;" vertex="1" parent="35">
                    <mxGeometry y="90" width="510" height="56" as="geometry"/>
                </mxCell>
                <mxCell id="41" value="/logout" style="shape=partialRectangle;html=1;whiteSpace=wrap;connectable=0;fillColor=none;top=0;left=0;bottom=0;right=0;overflow=hidden;" vertex="1" parent="40">
                    <mxGeometry width="180" height="56" as="geometry">
                        <mxRectangle width="180" height="56" as="alternateBounds"/>
                    </mxGeometry>
                </mxCell>
                <mxCell id="42" value="GET" style="shape=partialRectangle;html=1;whiteSpace=wrap;connectable=0;fillColor=none;top=0;left=0;bottom=0;right=0;overflow=hidden;" vertex="1" parent="40">
                    <mxGeometry x="180" width="140" height="56" as="geometry">
                        <mxRectangle width="140" height="56" as="alternateBounds"/>
                    </mxGeometry>
                </mxCell>
                <mxCell id="43" value="Logs a user out, clears cookies" style="shape=partialRectangle;html=1;whiteSpace=wrap;connectable=0;fillColor=none;top=0;left=0;bottom=0;right=0;overflow=hidden;" vertex="1" parent="40">
                    <mxGeometry x="320" width="190" height="56" as="geometry">
                        <mxRectangle width="190" height="56" as="alternateBounds"/>
                    </mxGeometry>
                </mxCell>
                <mxCell id="44" value="" style="shape=tableRow;horizontal=0;startSize=0;swimlaneHead=0;swimlaneBody=0;top=0;left=0;bottom=0;right=0;collapsible=0;dropTarget=0;fillColor=none;points=[[0,0.5],[1,0.5]];portConstraint=eastwest;" vertex="1" parent="35">
                    <mxGeometry y="146" width="510" height="57" as="geometry"/>
                </mxCell>
                <mxCell id="45" value="/authenticate-session" style="shape=partialRectangle;html=1;whiteSpace=wrap;connectable=0;fillColor=none;top=0;left=0;bottom=0;right=0;overflow=hidden;" vertex="1" parent="44">
                    <mxGeometry width="180" height="57" as="geometry">
                        <mxRectangle width="180" height="57" as="alternateBounds"/>
                    </mxGeometry>
                </mxCell>
                <mxCell id="46" value="GET" style="shape=partialRectangle;html=1;whiteSpace=wrap;connectable=0;fillColor=none;top=0;left=0;bottom=0;right=0;overflow=hidden;" vertex="1" parent="44">
                    <mxGeometry x="180" width="140" height="57" as="geometry">
                        <mxRectangle width="140" height="57" as="alternateBounds"/>
                    </mxGeometry>
                </mxCell>
                <mxCell id="47" value="Keeps a user signed in using cookies" style="shape=partialRectangle;html=1;whiteSpace=wrap;connectable=0;fillColor=none;top=0;left=0;bottom=0;right=0;overflow=hidden;" vertex="1" parent="44">
                    <mxGeometry x="320" width="190" height="57" as="geometry">
                        <mxRectangle width="190" height="57" as="alternateBounds"/>
                    </mxGeometry>
                </mxCell>
                <mxCell id="48" style="shape=tableRow;horizontal=0;startSize=0;swimlaneHead=0;swimlaneBody=0;top=0;left=0;bottom=0;right=0;collapsible=0;dropTarget=0;fillColor=none;points=[[0,0.5],[1,0.5]];portConstraint=eastwest;" vertex="1" parent="35">
                    <mxGeometry y="203" width="510" height="57" as="geometry"/>
                </mxCell>
                <mxCell id="49" value="/login" style="shape=partialRectangle;html=1;whiteSpace=wrap;connectable=0;fillColor=none;top=0;left=0;bottom=0;right=0;overflow=hidden;" vertex="1" parent="48">
                    <mxGeometry width="180" height="57" as="geometry">
                        <mxRectangle width="180" height="57" as="alternateBounds"/>
                    </mxGeometry>
                </mxCell>
                <mxCell id="50" value="POST&lt;span style=&quot;white-space: pre;&quot;&gt;&#9;&lt;/span&gt;" style="shape=partialRectangle;html=1;whiteSpace=wrap;connectable=0;fillColor=none;top=0;left=0;bottom=0;right=0;overflow=hidden;" vertex="1" parent="48">
                    <mxGeometry x="180" width="140" height="57" as="geometry">
                        <mxRectangle width="140" height="57" as="alternateBounds"/>
                    </mxGeometry>
                </mxCell>
                <mxCell id="51" value="Checks to see if a user exists in the database and returns the instance if so" style="shape=partialRectangle;html=1;whiteSpace=wrap;connectable=0;fillColor=none;top=0;left=0;bottom=0;right=0;overflow=hidden;" vertex="1" parent="48">
                    <mxGeometry x="320" width="190" height="57" as="geometry">
                        <mxRectangle width="190" height="57" as="alternateBounds"/>
                    </mxGeometry>
                </mxCell>
                <mxCell id="52" style="shape=tableRow;horizontal=0;startSize=0;swimlaneHead=0;swimlaneBody=0;top=0;left=0;bottom=0;right=0;collapsible=0;dropTarget=0;fillColor=none;points=[[0,0.5],[1,0.5]];portConstraint=eastwest;" vertex="1" parent="35">
                    <mxGeometry y="260" width="510" height="80" as="geometry"/>
                </mxCell>
                <mxCell id="53" value="/tarot-cards" style="shape=partialRectangle;html=1;whiteSpace=wrap;connectable=0;fillColor=none;top=0;left=0;bottom=0;right=0;overflow=hidden;" vertex="1" parent="52">
                    <mxGeometry width="180" height="80" as="geometry">
                        <mxRectangle width="180" height="80" as="alternateBounds"/>
                    </mxGeometry>
                </mxCell>
                <mxCell id="54" value="GET" style="shape=partialRectangle;html=1;whiteSpace=wrap;connectable=0;fillColor=none;top=0;left=0;bottom=0;right=0;overflow=hidden;" vertex="1" parent="52">
                    <mxGeometry x="180" width="140" height="80" as="geometry">
                        <mxRectangle width="140" height="80" as="alternateBounds"/>
                    </mxGeometry>
                </mxCell>
                <mxCell id="55" value="Get all data about all tarot cards" style="shape=partialRectangle;html=1;whiteSpace=wrap;connectable=0;fillColor=none;top=0;left=0;bottom=0;right=0;overflow=hidden;" vertex="1" parent="52">
                    <mxGeometry x="320" width="190" height="80" as="geometry">
                        <mxRectangle width="190" height="80" as="alternateBounds"/>
                    </mxGeometry>
                </mxCell>
                <mxCell id="56" style="shape=tableRow;horizontal=0;startSize=0;swimlaneHead=0;swimlaneBody=0;top=0;left=0;bottom=0;right=0;collapsible=0;dropTarget=0;fillColor=none;points=[[0,0.5],[1,0.5]];portConstraint=eastwest;" vertex="1" parent="35">
                    <mxGeometry y="340" width="510" height="57" as="geometry"/>
                </mxCell>
                <mxCell id="57" value="/tarot-cards/&amp;lt;int:id&amp;gt;" style="shape=partialRectangle;html=1;whiteSpace=wrap;connectable=0;fillColor=none;top=0;left=0;bottom=0;right=0;overflow=hidden;" vertex="1" parent="56">
                    <mxGeometry width="180" height="57" as="geometry">
                        <mxRectangle width="180" height="57" as="alternateBounds"/>
                    </mxGeometry>
                </mxCell>
                <mxCell id="58" value="GET" style="shape=partialRectangle;html=1;whiteSpace=wrap;connectable=0;fillColor=none;top=0;left=0;bottom=0;right=0;overflow=hidden;" vertex="1" parent="56">
                    <mxGeometry x="180" width="140" height="57" as="geometry">
                        <mxRectangle width="140" height="57" as="alternateBounds"/>
                    </mxGeometry>
                </mxCell>
                <mxCell id="59" value="Get info about a specific tarot card" style="shape=partialRectangle;html=1;whiteSpace=wrap;connectable=0;fillColor=none;top=0;left=0;bottom=0;right=0;overflow=hidden;" vertex="1" parent="56">
                    <mxGeometry x="320" width="190" height="57" as="geometry">
                        <mxRectangle width="190" height="57" as="alternateBounds"/>
                    </mxGeometry>
                </mxCell>
                <mxCell id="60" style="shape=tableRow;horizontal=0;startSize=0;swimlaneHead=0;swimlaneBody=0;top=0;left=0;bottom=0;right=0;collapsible=0;dropTarget=0;fillColor=none;points=[[0,0.5],[1,0.5]];portConstraint=eastwest;" vertex="1" parent="35">
                    <mxGeometry y="397" width="510" height="57" as="geometry"/>
                </mxCell>
                <mxCell id="61" value="users/&amp;lt;int:id&amp;gt;" style="shape=partialRectangle;html=1;whiteSpace=wrap;connectable=0;fillColor=none;top=0;left=0;bottom=0;right=0;overflow=hidden;" vertex="1" parent="60">
                    <mxGeometry width="180" height="57" as="geometry">
                        <mxRectangle width="180" height="57" as="alternateBounds"/>
                    </mxGeometry>
                </mxCell>
                <mxCell id="62" value="GET, PATCH, DELETE" style="shape=partialRectangle;html=1;whiteSpace=wrap;connectable=0;fillColor=none;top=0;left=0;bottom=0;right=0;overflow=hidden;" vertex="1" parent="60">
                    <mxGeometry x="180" width="140" height="57" as="geometry">
                        <mxRectangle width="140" height="57" as="alternateBounds"/>
                    </mxGeometry>
                </mxCell>
                <mxCell id="63" value="User info for profile, edit username/password, delete user" style="shape=partialRectangle;html=1;whiteSpace=wrap;connectable=0;fillColor=none;top=0;left=0;bottom=0;right=0;overflow=hidden;" vertex="1" parent="60">
                    <mxGeometry x="320" width="190" height="57" as="geometry">
                        <mxRectangle width="190" height="57" as="alternateBounds"/>
                    </mxGeometry>
                </mxCell>
                <mxCell id="64" style="shape=tableRow;horizontal=0;startSize=0;swimlaneHead=0;swimlaneBody=0;top=0;left=0;bottom=0;right=0;collapsible=0;dropTarget=0;fillColor=none;points=[[0,0.5],[1,0.5]];portConstraint=eastwest;" vertex="1" parent="35">
                    <mxGeometry y="454" width="510" height="66" as="geometry"/>
                </mxCell>
                <mxCell id="65" value="/lesson-statistics/&amp;lt;int:user_id&amp;gt;" style="shape=partialRectangle;html=1;whiteSpace=wrap;connectable=0;fillColor=none;top=0;left=0;bottom=0;right=0;overflow=hidden;" vertex="1" parent="64">
                    <mxGeometry width="180" height="66" as="geometry">
                        <mxRectangle width="180" height="66" as="alternateBounds"/>
                    </mxGeometry>
                </mxCell>
                <mxCell id="66" value="PATCH, GET" style="shape=partialRectangle;html=1;whiteSpace=wrap;connectable=0;fillColor=none;top=0;left=0;bottom=0;right=0;overflow=hidden;" vertex="1" parent="64">
                    <mxGeometry x="180" width="140" height="66" as="geometry">
                        <mxRectangle width="140" height="66" as="alternateBounds"/>
                    </mxGeometry>
                </mxCell>
                <mxCell id="67" value="Changes incomplete to complete when user finishes a lesson, renders a users completed lessons on profile" style="shape=partialRectangle;html=1;whiteSpace=wrap;connectable=0;fillColor=none;top=0;left=0;bottom=0;right=0;overflow=hidden;" vertex="1" parent="64">
                    <mxGeometry x="320" width="190" height="66" as="geometry">
                        <mxRectangle width="190" height="66" as="alternateBounds"/>
                    </mxGeometry>
                </mxCell>
                <mxCell id="68" style="shape=tableRow;horizontal=0;startSize=0;swimlaneHead=0;swimlaneBody=0;top=0;left=0;bottom=0;right=0;collapsible=0;dropTarget=0;fillColor=none;points=[[0,0.5],[1,0.5]];portConstraint=eastwest;" vertex="1" parent="35">
                    <mxGeometry y="520" width="510" height="66" as="geometry"/>
                </mxCell>
                <mxCell id="69" value="/readings/&amp;lt;int:user_id&amp;gt;" style="shape=partialRectangle;html=1;whiteSpace=wrap;connectable=0;fillColor=none;top=0;left=0;bottom=0;right=0;overflow=hidden;" vertex="1" parent="68">
                    <mxGeometry width="180" height="66" as="geometry">
                        <mxRectangle width="180" height="66" as="alternateBounds"/>
                    </mxGeometry>
                </mxCell>
                <mxCell id="70" value="POST, GET" style="shape=partialRectangle;html=1;whiteSpace=wrap;connectable=0;fillColor=none;top=0;left=0;bottom=0;right=0;overflow=hidden;" vertex="1" parent="68">
                    <mxGeometry x="180" width="140" height="66" as="geometry">
                        <mxRectangle width="140" height="66" as="alternateBounds"/>
                    </mxGeometry>
                </mxCell>
                <mxCell id="71" value="Created when a user does a reading, renders a user's readings on profile" style="shape=partialRectangle;html=1;whiteSpace=wrap;connectable=0;fillColor=none;top=0;left=0;bottom=0;right=0;overflow=hidden;" vertex="1" parent="68">
                    <mxGeometry x="320" width="190" height="66" as="geometry">
                        <mxRectangle width="190" height="66" as="alternateBounds"/>
                    </mxGeometry>
                </mxCell>
                <mxCell id="72" style="shape=tableRow;horizontal=0;startSize=0;swimlaneHead=0;swimlaneBody=0;top=0;left=0;bottom=0;right=0;collapsible=0;dropTarget=0;fillColor=none;points=[[0,0.5],[1,0.5]];portConstraint=eastwest;" vertex="1" parent="35">
                    <mxGeometry y="586" width="510" height="66" as="geometry"/>
                </mxCell>
                <mxCell id="73" value="/lessons/&amp;lt;int:user_id&amp;gt;" style="shape=partialRectangle;html=1;whiteSpace=wrap;connectable=0;fillColor=none;top=0;left=0;bottom=0;right=0;overflow=hidden;" vertex="1" parent="72">
                    <mxGeometry width="180" height="66" as="geometry">
                        <mxRectangle width="180" height="66" as="alternateBounds"/>
                    </mxGeometry>
                </mxCell>
                <mxCell id="74" value="GET&lt;span style=&quot;white-space: pre;&quot;&gt;&#9;&lt;/span&gt;" style="shape=partialRectangle;html=1;whiteSpace=wrap;connectable=0;fillColor=none;top=0;left=0;bottom=0;right=0;overflow=hidden;" vertex="1" parent="72">
                    <mxGeometry x="180" width="140" height="66" as="geometry">
                        <mxRectangle width="140" height="66" as="alternateBounds"/>
                    </mxGeometry>
                </mxCell>
                <mxCell id="75" value="Shows all lessons a user can take, grays out completed lessons" style="shape=partialRectangle;html=1;whiteSpace=wrap;connectable=0;fillColor=none;top=0;left=0;bottom=0;right=0;overflow=hidden;" vertex="1" parent="72">
                    <mxGeometry x="320" width="190" height="66" as="geometry">
                        <mxRectangle width="190" height="66" as="alternateBounds"/>
                    </mxGeometry>
                </mxCell>
            </root>
        </mxGraphModel>
    </diagram>
</mxfile>